<?xml version="1.0" standalone="no"?><!DOCTYPE svg PUBLIC "-//W3C//DTD SVG 1.1//EN" "http://www.w3.org/Graphics/SVG/1.1/DTD/svg11.dtd"><svg t="1543422798568" class="icon" style="" viewBox="0 0 1024 1024" version="1.1" xmlns="http://www.w3.org/2000/svg" p-id="1984" xmlns:xlink="http://www.w3.org/1999/xlink" width="200" height="200"><defs><style type="text/css"></style></defs><path d="M903.715768 239.233788 746.236423 239.233788c10.949238-16.661972 17.681884-37.557908 17.681884-62.679633C763.918307 102.308024 705.161964 64.383234 652.280846 64.383234c-61.426715 0-104.693269 31.515082-139.946667 70.507816C477.614244 95.898315 433.814228 64.383234 372.386491 64.383234c-52.881118 0-112.170922 37.92479-112.170922 112.170922 0 25.121725 6.793964 46.017661 17.823936 62.679633L120.28321 239.233788C89.415026 239.233788 64.383234 264.282954 64.383234 295.163401L64.383234 435.087585c0 30.85592 25.026683 55.929613 55.899976 55.929613l0.05212 0 0 412.712878c0 30.844679 25.988343 55.885669 58.005206 55.885669l667.31893 0c31.966786 0 58.005206-25.023617 58.005206-55.885669L903.664671 491.01822l0.051098 0c30.869206 0 55.900998-25.050188 55.900998-55.929613L959.616766 295.163401C959.616766 264.307481 934.590084 239.233788 903.715768 239.233788zM653.34879 118.866778c31.515082 0 56.619433 22.43398 56.619433 57.688399 0 35.254419-25.105373 57.688399-56.619433 57.688399-45.936926 0-77.985469-25.105373-105.227752-57.688399C575.363321 143.97113 607.411864 118.866778 653.34879 118.866778zM371.318547 118.866778c45.936926 0 77.985469 25.105373 105.761214 57.688399-27.775745 32.583026-59.824287 57.688399-105.761214 57.688399-31.515082 0-56.619433-22.43398-56.619433-57.688399C314.699114 141.300758 339.803465 118.866778 371.318547 118.866778zM512.33418 218.218283c6.636583 7.340711 13.558291 14.396295 20.830531 21.015505l-41.46178 0C498.939401 232.614579 505.797749 225.558994 512.33418 218.218283zM178.340535 903.664671c0.016351 0 0.019417-315.71085 0.019417-412.646451l667.280096 0 0 412.712878C845.640048 903.649341 178.340535 903.664671 178.340535 903.664671zM903.664671 435.066124l-29.012311 0L149.347641 435.066124l-26.816128 0c-1.269269 0-2.008144 0-2.195162 0-0.031681 0-0.05212 0-0.05212 0 0.051098 0 0.05212-139.902723 0.05212-139.902723 0 0.012263 783.380439 0.022483 783.380439 0.022483C903.664671 295.185884 903.664671 434.120814 903.664671 435.066124z" p-id="1985"></path><path d="M742.802651 546.970315c-15.450954 0-27.976048 12.525094-27.976048 27.976048l0 244.790164c0 15.450954 12.525094 27.976048 27.976048 27.976048 15.450954 0 27.976048-12.525094 27.976048-27.976048L770.778699 574.946363C770.778699 559.495409 758.253605 546.970315 742.802651 546.970315z" p-id="1986"></path></svg>