<?xml version="1.0" standalone="no"?><!DOCTYPE svg PUBLIC "-//W3C//DTD SVG 1.1//EN" "http://www.w3.org/Graphics/SVG/1.1/DTD/svg11.dtd"><svg t="1542539812498" class="icon" style="" viewBox="0 0 1024 1024" version="1.1" xmlns="http://www.w3.org/2000/svg" p-id="1091" xmlns:xlink="http://www.w3.org/1999/xlink" width="200" height="200"><defs><style type="text/css"></style></defs><path d="M930.909091 488.727273 628.363636 488.727273c-12.846545 0-23.272727 10.426182-23.272727 23.272727s10.426182 23.272727 23.272727 23.272727l302.545455 0c12.846545 0 23.272727-10.426182 23.272727-23.272727S943.755636 488.727273 930.909091 488.727273z" p-id="1092"></path><path d="M512 69.818182c-12.846545 0-23.272727 10.426182-23.272727 23.272727l0 395.636364L93.090909 488.727273c-12.846545 0-23.272727 10.426182-23.272727 23.272727s10.426182 23.272727 23.272727 23.272727l395.636364 0 0 395.636364c0 12.846545 10.426182 23.272727 23.272727 23.272727s23.272727-10.426182 23.272727-23.272727L535.272727 93.090909C535.272727 80.244364 524.846545 69.818182 512 69.818182z" p-id="1093"></path></svg>