<?xml version="1.0" standalone="no"?><!DOCTYPE svg PUBLIC "-//W3C//DTD SVG 1.1//EN" "http://www.w3.org/Graphics/SVG/1.1/DTD/svg11.dtd"><svg t="1542875239519" class="icon" style="" viewBox="0 0 1024 1024" version="1.1" xmlns="http://www.w3.org/2000/svg" p-id="3434" xmlns:xlink="http://www.w3.org/1999/xlink" width="200" height="200"><defs><style type="text/css"></style></defs><path d="M196.9 924.2h-42c-34.7 0-63-28.2-63-63V483.5c0-34.7 28.2-63 63-63h42c11.6 0 21 9.4 21 21s-9.4 21-21 21h-42c-11.6 0-21 9.4-21 21v377.7c0 11.6 9.4 21 21 21h42c11.6 0 21 9.4 21 21s-9.4 21-21 21zM766.2 924.2H339.9c-34.7 0-63-28.2-63-63V452.1c0-34.7 28.2-63 63-63h12.8c69.7-35.5 113.9-105.5 115.8-183.9v-5c0-1.4 0-2.8-0.1-4.3-0.1-1.1-0.1-2.3-0.1-3.4 3.5-52.1 47.1-92.8 99.4-92.8 36 0 69.3 19.5 86.9 50.8 0.6 1 1.1 2.1 1.5 3.2 4.6 12.9 8.2 26.2 10.7 39.7 3.8 19.2 5.8 39.1 5.8 58.9 0 47.9-11.2 94.6-32.6 136.8h205.6c37.2 0 57.7 14.9 68.4 27.5 15.4 18.2 21 43.2 16.2 72.5l-80.7 376.6c-0.2 0.9-0.4 1.7-0.7 2.6-12.4 35.5-42.6 55.9-82.6 55.9zM339.9 431.1c-11.6 0-21 9.4-21 21v409.2c0 11.6 9.4 21 21 21h426.3c31.5 0 39.9-18.9 42.7-26.7l80.2-374.2c1.7-10.7 2.1-26.9-7-37.6-8.9-10.5-24.7-12.7-36.4-12.7H603.4c-7.8 0-14.9-4.3-18.5-11.1-3.6-6.9-3.2-15.2 1.1-21.6 29.2-43.2 44.7-93.7 44.7-146 0-17-1.7-34.1-5-50.9-2-10.9-4.9-21.5-8.4-31.8-10.4-17.3-29.2-27.9-49.5-27.9-29.8 0-54.8 22.9-57.4 52.3 0.1 2.1 0.1 4.2 0.1 6.3v5.5c-2.2 96.2-57.3 181.5-143.7 223.3-2.8 1.4-6 2.1-9.1 2.1h-17.8z" fill="" p-id="3435"></path></svg>