<?xml version="1.0" standalone="no"?><!DOCTYPE svg PUBLIC "-//W3C//DTD SVG 1.1//EN" "http://www.w3.org/Graphics/SVG/1.1/DTD/svg11.dtd"><svg t="1543207737274" class="icon" style="" viewBox="0 0 1024 1024" version="1.1" xmlns="http://www.w3.org/2000/svg" p-id="4105" xmlns:xlink="http://www.w3.org/1999/xlink" width="200" height="200"><defs><style type="text/css"></style></defs><path d="M185.6 838.4h652.8V204.8A19.2 19.2 0 0 0 819.2 185.6h-307.2A19.2 19.2 0 0 0 492.8 204.8v288H204.8a19.2 19.2 0 0 0-19.2 19.2v326.4z m243.2-409.6V204.8c0-45.9264 37.2736-83.2 83.2-83.2h307.2c45.9264 0 83.2 37.2736 83.2 83.2v640c0 31.7952-25.8048 57.6-57.6 57.6h-665.6A57.6 57.6 0 0 1 121.6 844.8V512c0-45.9264 37.2736-83.2 83.2-83.2h224z" p-id="4106"></path><path d="M428.8 409.6h64v460.8h-64zM716.8 326.4a32 32 0 1 1 0 64h-102.4a32 32 0 1 1 0-64h102.4z m0 153.6a32 32 0 1 1 0 64h-102.4a32 32 0 1 1 0-64h102.4z m0 153.6a32 32 0 1 1 0 64h-102.4a32 32 0 1 1 0-64h102.4z" p-id="4107"></path></svg>