<?xml version="1.0" standalone="no"?><!DOCTYPE svg PUBLIC "-//W3C//DTD SVG 1.1//EN" "http://www.w3.org/Graphics/SVG/1.1/DTD/svg11.dtd"><svg t="1542784092380" class="icon" style="" viewBox="0 0 1024 1024" version="1.1" xmlns="http://www.w3.org/2000/svg" p-id="5652" xmlns:xlink="http://www.w3.org/1999/xlink" width="200" height="200"><defs><style type="text/css"></style></defs><path d="M851.924923 394.452817 701.265598 207.521381c-5.54632-6.881734-15.398712-7.786337-22.016433-2.009773L266.585591 565.683666c-1.89721 1.653663-3.387144 3.751441-4.355191 6.123464l-91.602278 225.288023c-4.915963 12.089339 5.257747 24.955368 17.609053 22.249747l232.283344-50.854225c2.51324-0.555655 4.858658-1.736551 6.825452-3.455705L851.924923 394.452817 851.924923 394.452817 851.924923 394.452817zM200.577225 789.746792l73.473385-164.5548c4.819772-10.799974 18.794042-12.722766 26.145473-3.594875l79.157851 98.229209c7.43432 9.228175 2.992147 23.362081-8.241708 26.240641l-170.535001 43.675732L200.577225 789.746792 200.577225 789.746792 200.577225 789.746792zM424.705841 724.876342 314.230728 587.781964c-5.545296-6.878664-4.676509-17.139356 1.933025-22.910802l263.244496-229.764987c6.614651-5.776563 16.476253-4.877077 22.020526 2.001587l100.42727 124.631532c5.54939 6.886851 4.685719 17.144472-1.928932 22.914896L424.705841 724.876342 424.705841 724.876342 424.705841 724.876342zM615.368252 303.727513l59.986209-52.360532c6.617721-5.780657 16.47523-4.871961 22.024619 2.00568l100.431364 124.636648c5.545296 6.877641 4.685719 17.138332-1.932002 22.909779l-48.013527 41.903366c-6.618744 5.776563-16.476253 4.877077-22.020526-2.00568L615.368252 303.727513 615.368252 303.727513 615.368252 303.727513zM422.179298 620.945271l191.799304-167.418011c6.617721-5.76633 7.478322-16.022928 1.927909-22.909779l0 0c-5.545296-6.887874-15.406898-7.78122-22.01541-2.006703l-191.799304 167.412894c-6.618744 5.76633-7.482415 16.028045-1.938142 22.905686l0 0.004093C405.699975 625.816209 415.561577 626.719788 422.179298 620.945271L422.179298 620.945271zM422.179298 620.945271" p-id="5653"></path></svg>