<?xml version="1.0" standalone="no"?><!DOCTYPE svg PUBLIC "-//W3C//DTD SVG 1.1//EN" "http://www.w3.org/Graphics/SVG/1.1/DTD/svg11.dtd"><svg t="1542784116492" class="icon" style="" viewBox="0 0 1024 1024" version="1.1" xmlns="http://www.w3.org/2000/svg" p-id="6003" xmlns:xlink="http://www.w3.org/1999/xlink" width="200" height="200"><defs><style type="text/css"></style></defs><path d="M300.816 1023.373 1.099 1023.373 1.099 724.777l9.759-9.435c5.861-5.666 587.179-567.608 676.025-653.556C723.775 26.097 761.184 8 798.068 8c44.568 0 71.713 26.319 78.775 34.116 9.239 8.896 76.49 73.86 111.276 113.348 21.541 24.452 29.305 56.54 22.452 92.795-4.617 24.423-14.473 42.572-15.582 44.561l-1.977 3.546-2.799 2.94L300.816 1023.373zM65.099 959.373l208.284 0 667.145-700.694c4.572-9.983 16.764-41.392-0.431-60.909-34.84-39.549-107.815-109.717-108.548-110.421l-1.804-1.732-0.592-0.813C827.326 82.885 816.158 72 798.068 72c-19.428 0-42.487 12.375-66.688 35.785-82.476 79.787-589.268 569.691-666.282 644.139L65.098 959.373z" p-id="6004"></path><path d="M148.511731 658.129097l231.948599 231.948599-45.253693 45.253693-231.948599-231.948599 45.253693-45.253693Z" p-id="6005"></path></svg>