<?xml version="1.0" standalone="no"?><!DOCTYPE svg PUBLIC "-//W3C//DTD SVG 1.1//EN" "http://www.w3.org/Graphics/SVG/1.1/DTD/svg11.dtd"><svg t="1542784101790" class="icon" style="" viewBox="0 0 1024 1024" version="1.1" xmlns="http://www.w3.org/2000/svg" p-id="5768" xmlns:xlink="http://www.w3.org/1999/xlink" width="200" height="200"><defs><style type="text/css"></style></defs><path d="M83.2 972.8c-6.4 0-12.8 0-19.2-6.4l-6.4-6.4c-6.4-6.4-12.8-19.2-6.4-25.6 6.4-38.4 57.6-217.6 96-262.4l576-576c25.6-25.6 57.6-38.4 96-38.4s70.4 12.8 102.4 44.8l6.4 6.4c25.6 25.6 44.8 64 44.8 96 0 38.4-12.8 76.8-38.4 102.4l-576 576c-44.8 38.4-230.4 76.8-275.2 89.6 6.4 0 6.4 0 0 0z m736-864c-19.2 0-38.4 6.4-51.2 19.2l-576 576c-19.2 19.2-51.2 115.2-76.8 198.4 83.2-19.2 179.2-51.2 198.4-70.4l576-576c12.8-12.8 19.2-32 19.2-57.6s-12.8-44.8-25.6-57.6l-6.4-6.4c-12.8-12.8-32-25.6-57.6-25.6z" fill="" p-id="5769"></path><path d="M870.4 313.6c-6.4 0-6.4 0-12.8-6.4l-153.6-153.6c-6.4-6.4-6.4-12.8 0-19.2 6.4-6.4 12.8-6.4 19.2 0l153.6 153.6c6.4 6.4 6.4 12.8 0 19.2 0 6.4 0 6.4-6.4 6.4zM345.6 838.4c-6.4 0-6.4 0-12.8-6.4l-153.6-153.6c-6.4-6.4-6.4-12.8 0-19.2 6.4-6.4 12.8-6.4 19.2 0l153.6 153.6c6.4 6.4 6.4 12.8 0 19.2 0 6.4 0 6.4-6.4 6.4zM236.8 908.8c-6.4 0-6.4 0-12.8-6.4l-96-102.4c-6.4-6.4-6.4-12.8 0-19.2 6.4-6.4 12.8-6.4 19.2 0l96 102.4c6.4 6.4 6.4 12.8 0 19.2 0 6.4-6.4 6.4-6.4 6.4z" fill="" p-id="5770"></path><path d="M249.6 742.4c-6.4 0-6.4 0-12.8-6.4s-6.4-12.8 0-19.2l428.8-428.8c6.4-6.4 12.8-6.4 19.2 0 6.4 6.4 6.4 12.8 0 19.2l-428.8 428.8c6.4 6.4 0 6.4-6.4 6.4zM723.2 268.8c-6.4 0-6.4 0-12.8-6.4s-6.4-12.8 0-19.2l51.2-51.2c6.4-6.4 12.8-6.4 19.2 0 6.4 6.4 6.4 12.8 0 19.2l-51.2 51.2c0 6.4-6.4 6.4-6.4 6.4zM300.8 787.2c-6.4 0-6.4 0-12.8-6.4s-6.4-12.8 0-19.2l524.8-524.8c6.4-6.4 12.8-6.4 19.2 0 6.4 6.4 6.4 12.8 0 19.2l-524.8 524.8c0 6.4-6.4 6.4-6.4 6.4z" fill="" p-id="5771"></path></svg>