<?xml version="1.0" standalone="no"?><!DOCTYPE svg PUBLIC "-//W3C//DTD SVG 1.1//EN" "http://www.w3.org/Graphics/SVG/1.1/DTD/svg11.dtd"><svg t="1542965866353" class="icon" style="" viewBox="0 0 1024 1024" version="1.1" xmlns="http://www.w3.org/2000/svg" p-id="1818" xmlns:xlink="http://www.w3.org/1999/xlink" width="200" height="200"><defs><style type="text/css"></style></defs><path d="M767.082667 73.045333c40.725333-40.405333 106.645333-40.512 147.264-0.192l36.373333 36.096a103.317333 103.317333 0 0 1 0.042667 146.794667L695.04 511.957333l255.658667 256.149334a103.466667 103.466667 0 0 1 0.085333 146.944l-36.352 36.096c-40.682667 40.362667-106.56 40.192-147.413333-0.341334L512 695.338667 256.853333 950.954667c-40.704 40.384-106.581333 40.533333-147.264 0.192l-36.352-36.096a103.445333 103.445333 0 0 1-0.064-146.794667l255.786667-256.277333L73.386667 255.893333a103.36 103.36 0 0 1-0.106667-146.944L109.653333 72.853333c40.618667-40.32 106.538667-40.213333 147.413334 0.341334L512 328.618667l255.082667-255.573334zM481.792 419.157333L196.778667 133.610667a19.349333 19.349333 0 0 0-27.008-0.192L133.397333 169.514667a18.069333 18.069333 0 0 0 0.213334 25.941333l285.866666 286.378667a42.666667 42.666667 0 0 1 0 60.288L133.397333 828.672a18.154667 18.154667 0 0 0-0.064 25.813333l36.352 36.096a19.285333 19.285333 0 0 0 26.88-0.042666l285.226667-285.738667a42.666667 42.666667 0 0 1 60.373333 0l285.077334 285.589333a19.328 19.328 0 0 0 27.029333 0.192l36.352-36.096a18.197333 18.197333 0 0 0-0.213333-25.941333l-285.866667-286.421333a42.666667 42.666667 0 0 1 0-60.288l285.973333-286.506667a18.026667 18.026667 0 0 0 0.085334-25.813333l-36.373334-36.096a19.306667 19.306667 0 0 0-26.88 0.042666L542.208 419.157333a42.666667 42.666667 0 0 1-60.416 0z" fill="" p-id="1819"></path></svg>