<?xml version="1.0" standalone="no"?><!DOCTYPE svg PUBLIC "-//W3C//DTD SVG 1.1//EN" "http://www.w3.org/Graphics/SVG/1.1/DTD/svg11.dtd"><svg t="1542784495844" class="icon" style="" viewBox="0 0 1024 1024" version="1.1" xmlns="http://www.w3.org/2000/svg" p-id="7499" xmlns:xlink="http://www.w3.org/1999/xlink" width="200" height="200"><defs><style type="text/css"></style></defs><path d="M925.043732 886.077767H561.777195l372.014782-371.997385c34.424021-34.476209 34.424021-90.540086-0.018419-125.017319L635.408169 90.698698C618.714975 74.004481 596.504114 64.791655 572.901557 64.791655c-23.622 0-45.832861 9.212826-62.508659 25.888624l-30.620392 30.601972c-14.283308 14.283308-14.283308 37.440727-0.018419 51.724035 14.283308 14.283308 37.440727 14.265912 51.724035 0.018419l30.637787-30.620391c3.874237-3.892657 8.40953-4.481058 10.784624-4.481058 2.356674 0 6.890944 0.589424 10.783601 4.481058l298.365388 298.365388c5.962805 5.945409 5.962805 15.658631 0.01842 21.603017L458.364941 886.077767H137.484769V566.999638l290.562679-290.561655 258.763438 258.746042c14.283308 14.284331 37.422308 14.284331 51.706639 0 14.283308-14.283308 14.283308-37.422308 0-51.705615L453.900256 198.877513c-14.283308-14.283308-37.422308-14.283308-51.705616 0L75.065138 526.007015a36.56887 36.56887 0 0 0-10.711969 25.852808v359.480304c-1.178849 3.589758-1.963725 7.339152-1.963725 11.302417 0 20.193925 16.372899 36.564777 36.5658 36.564777h826.088488c20.192901 0 36.5658-16.370853 36.565801-36.564777 0-20.191878-16.372899-36.564777-36.565801-36.564777z" fill="" p-id="7500"></path></svg>