<?xml version="1.0" standalone="no"?><!DOCTYPE svg PUBLIC "-//W3C//DTD SVG 1.1//EN" "http://www.w3.org/Graphics/SVG/1.1/DTD/svg11.dtd"><svg t="1542816989512" class="icon" style="" viewBox="0 0 1024 1024" version="1.1" xmlns="http://www.w3.org/2000/svg" p-id="1847" xmlns:xlink="http://www.w3.org/1999/xlink" width="200" height="200"><defs><style type="text/css"></style></defs><path d="M322.197333 267.264h379.477334a27.52 27.52 0 0 0 27.242666-27.797333 27.52 27.52 0 0 0-27.242666-27.797334H322.197333a27.477333 27.477333 0 0 0-27.221333 27.797334c0 15.274667 12.117333 27.797333 27.221333 27.797333m0 154.154667h270.464c15.082667 0 27.093333-12.416 27.093334-27.776 0-15.36-12.010667-27.776-27.093334-27.776H322.197333c-15.104 0-27.221333 12.416-27.221333 27.776 0 15.36 12.117333 27.776 27.221333 27.776m618.325334-87.082667l-68.245334-40.405333V28.074667a27.861333 27.861333 0 0 0-27.584-28.096H179.050667c-15.210667 0-27.562667 12.522667-27.562667 28.096v265.856l-68.309333 40.405333-54.378667 27.776v634.218667c0 3.882667 0.725333 7.445333 2.154667 10.752 0.106667 0.341333 0.32 0.576 0.426666 0.768 0.725333 1.642667 1.621333 3.178667 2.688 4.608 4.757333 6.656 12.288 11.093333 21.013334 11.413333 0.341333 0 0.618667 0.106667 0.938666 0.106667h911.786667c15.061333 0 27.221333-12.437333 27.221333-27.669334V364.736l-54.506666-30.4m-68.245334 23.829333l64.192 37.973334-64.192 37.994666v-75.968M223.552 55.445333H800.213333c13.589333 0 17.664 4.16 17.664 18.005334v393.002666l-305.984 181.162667L205.845333 466.346667V73.450667c0-13.845333 4.202667-18.005333 17.706667-18.005334M151.488 434.176l-64.213333-38.016 64.213333-37.973333v75.989333m789.034667 534.4H83.178667V457.984l415.018666 245.738667c0.448 0.341333 0.853333 0.448 1.301334 0.64l1.813333 0.853333c0.981333 0.469333 1.984 0.874667 3.008 1.194667a9.813333 9.813333 0 0 0 2.048 0.469333 12.650667 12.650667 0 0 0 3.008 0.448h5.184c0.96-0.106667 2.048-0.341333 2.986667-0.448 0.661333-0.234667 1.386667-0.32 2.048-0.469333 1.109333-0.298667 2.048-0.725333 3.157333-1.194667 0.618667-0.341333 1.152-0.554667 1.813333-0.853333 0.426667-0.213333 0.853333-0.32 1.28-0.64l414.656-245.888v510.741333" p-id="1848"></path></svg>