<?xml version="1.0" standalone="no"?><!DOCTYPE svg PUBLIC "-//W3C//DTD SVG 1.1//EN" "http://www.w3.org/Graphics/SVG/1.1/DTD/svg11.dtd"><svg t="1543201992994" class="icon" style="" viewBox="0 0 1024 1024" version="1.1" xmlns="http://www.w3.org/2000/svg" p-id="3506" xmlns:xlink="http://www.w3.org/1999/xlink" width="200" height="200"><defs><style type="text/css"></style></defs><path d="M591.7 5.2c-228.9 0-415.2 186.2-415.2 415.2 0 121.8 53 231.1 136.8 307.1L196.2 838.6 83.8 720l-29.4 27.8 112.4 118.6L38.2 988.3l27.8 29.4 128.5-121.8L310 1017.8l29.4-27.8L224 868l120.9-114.6c69.1 51.3 154.3 82.1 246.8 82.1 228.9 0 415.2-186.2 415.2-415.2S820.7 5.2 591.7 5.2z m0 789.8c-206.6 0-374.6-168.1-374.6-374.6s168-374.7 374.6-374.7 374.6 168.1 374.6 374.6S798.3 795 591.7 795z" fill="" p-id="3507"></path></svg>