<?xml version="1.0" standalone="no"?><!DOCTYPE svg PUBLIC "-//W3C//DTD SVG 1.1//EN" "http://www.w3.org/Graphics/SVG/1.1/DTD/svg11.dtd"><svg t="1542257276639" class="icon" style="" viewBox="0 0 1024 1024" version="1.1" xmlns="http://www.w3.org/2000/svg" p-id="10388" xmlns:xlink="http://www.w3.org/1999/xlink" width="200" height="200"><defs><style type="text/css"></style></defs><path d="M864 362.666667c-6.4-57.6-59.733333-104.533333-119.466667-104.533334h-42.666666v-14.933333c0-102.4-83.2-183.466667-183.466667-183.466667-102.4 0-183.466667 83.2-183.466667 183.466667v14.933333h-53.333333c-57.6 0-113.066667 46.933333-119.466667 104.533334L100.266667 842.666667c-4.266667 29.866667 4.266667 57.6 23.466666 78.933333s44.8 32 74.666667 32h328.533333c12.8 0 21.333333-8.533333 21.333334-21.333333s-8.533333-21.333333-21.333334-21.333334H198.4c-17.066667 0-32-6.4-42.666667-19.2-10.666667-12.8-14.933333-27.733333-12.8-44.8l59.733334-482.133333c4.266667-36.266667 40.533333-68.266667 76.8-68.266667h53.333333v89.6c-19.2 8.533333-32 27.733333-32 49.066667 0 29.866667 23.466667 53.333333 53.333333 53.333333s53.333333-23.466667 53.333334-53.333333c0-21.333333-12.8-40.533333-32-49.066667v-89.6h283.733333v89.6c-19.2 8.533333-32 27.733333-32 49.066667 0 29.866667 23.466667 53.333333 53.333333 53.333333s53.333333-23.466667 53.333334-53.333333c0-21.333333-12.8-40.533333-32-49.066667v-89.6h42.666666c36.266667 0 72.533333 32 76.8 68.266667l59.733334 482.133333c2.133333 17.066667-2.133333 32-12.8 44.8s-25.6 19.2-42.666667 19.2h-93.866667c-12.8 0-21.333333 8.533333-21.333333 21.333334s8.533333 21.333333 21.333333 21.333333h93.866667c29.866667 0 55.466667-10.666667 74.666667-32s27.733333-49.066667 23.466666-78.933333L864 362.666667z m-488.533333-106.666667v-14.933333c0-78.933333 64-140.8 140.8-140.8 78.933333 0 140.8 64 140.8 140.8v14.933333H375.466667z" fill="#666666" p-id="10389"></path><path d="M629.333333 934.4m-32 0a32 32 0 1 0 64 0 32 32 0 1 0-64 0Z" fill="#666666" p-id="10390"></path></svg>