<?xml version="1.0" standalone="no"?><!DOCTYPE svg PUBLIC "-//W3C//DTD SVG 1.1//EN" "http://www.w3.org/Graphics/SVG/1.1/DTD/svg11.dtd"><svg t="1543753905010" class="icon" style="" viewBox="0 0 1024 1024" version="1.1" xmlns="http://www.w3.org/2000/svg" p-id="5547" xmlns:xlink="http://www.w3.org/1999/xlink" width="200" height="200"><defs><style type="text/css"></style></defs><path d="M749.2 929.6H621.1c-20.8 0-37.7-16.9-37.7-37.7V735.8c0-39.3-32-71.3-71.3-71.3s-71.3 32-71.3 71.3v156.1c0 20.8-16.9 37.7-37.7 37.7H274.9c-77.9 0-141.3-59.2-141.3-132v-316c0-13.3 10.7-24 24-24s24 10.7 24 24v316.1c0 46.3 41.8 84 93.3 84h117.8V735.8c0-65.8 53.5-119.3 119.3-119.3S631.4 670 631.4 735.8v145.8h117.8c51.4 0 93.3-37.7 93.3-84v-316c0-13.3 10.7-24 24-24s24 10.7 24 24v316.1c0 72.7-63.4 131.9-141.3 131.9zM931 448.6c-5.3 0-10.6-1.7-15.1-5.3L571.8 165c-34.7-28-85-28-119.6 0l-344 278.2c-10.3 8.3-25.4 6.7-33.8-3.6-8.3-10.3-6.7-25.4 3.6-33.8l344-278.2c25.4-20.5 57.3-31.8 90-31.8 32.6 0 64.6 11.3 90 31.8l344 278.2c10.3 8.3 11.9 23.4 3.6 33.8-4.7 5.9-11.6 9-18.6 9z" p-id="5548"></path></svg>