<?xml version="1.0" standalone="no"?><!DOCTYPE svg PUBLIC "-//W3C//DTD SVG 1.1//EN" "http://www.w3.org/Graphics/SVG/1.1/DTD/svg11.dtd"><svg t="1543139056203" class="icon" style="" viewBox="0 0 1024 1024" version="1.1" xmlns="http://www.w3.org/2000/svg" p-id="1116" xmlns:xlink="http://www.w3.org/1999/xlink" width="200" height="200"><defs><style type="text/css"></style></defs><path d="M505.773738 0C229.302543 0 0.125783 229.17676 0.125783 518.352045c0 276.471195 229.17676 505.647955 505.647955 505.647955 289.175286 0 518.352045-229.17676 518.352045-505.647955C1024.125783 229.302543 794.82324 0 505.773738 0z m291.81673 361.37477L433.574254 719.604963a5.534455 5.534455 0 0 1-7.798551-0.125784L257.981083 545.772755a6.666503 6.666503 0 0 1-0.503132-8.427466l23.018303-31.319985a5.408672 5.408672 0 0 1 7.672767-1.132048l137.10355 105.15465a7.169635 7.169635 0 0 0 8.553249-0.125783l333.828277-278.232159a6.163371 6.163371 0 0 1 8.050116 0.37735l21.886255 21.634688a5.408672 5.408672 0 0 1 0 7.672768z" fill="#31AD37" p-id="1117"></path></svg>