<?xml version="1.0" standalone="no"?><!DOCTYPE svg PUBLIC "-//W3C//DTD SVG 1.1//EN" "http://www.w3.org/Graphics/SVG/1.1/DTD/svg11.dtd"><svg t="1543729943634" class="icon" style="" viewBox="0 0 1024 1024" version="1.1" xmlns="http://www.w3.org/2000/svg" p-id="2350" xmlns:xlink="http://www.w3.org/1999/xlink" width="200" height="200"><defs><style type="text/css"></style></defs><path d="M402.746 146.746l-320 320c-24.994 24.992-24.994 65.516 0 90.508l320 320c24.994 24.992 65.516 24.992 90.51 0 24.996-24.992 24.996-65.516 0-90.508L282.508 576 896 576c35.346 0 64-28.652 64-64 0-35.346-28.654-64-64-64L282.508 448l210.746-210.746C505.75 224.758 512 208.378 512 192s-6.248-32.758-18.744-45.254C468.26 121.752 427.74 121.752 402.746 146.746z" p-id="2351"></path></svg>