<?xml version="1.0" standalone="no"?><!DOCTYPE svg PUBLIC "-//W3C//DTD SVG 1.1//EN" "http://www.w3.org/Graphics/SVG/1.1/DTD/svg11.dtd"><svg t="1543048245833" class="icon" style="" viewBox="0 0 1024 1024" version="1.1" xmlns="http://www.w3.org/2000/svg" p-id="2601" xmlns:xlink="http://www.w3.org/1999/xlink" width="200" height="200"><defs><style type="text/css"></style></defs><path d="M512 601.6c-85.333333 0-153.6-68.266667-153.6-153.6s68.266667-153.6 153.6-153.6 153.6 68.266667 153.6 153.6-68.266667 153.6-153.6 153.6z m0-264.533333c-59.733333 0-110.933333 49.066667-110.933333 110.933333s49.066667 110.933333 110.933333 110.933333 110.933333-49.066667 110.933333-110.933333-51.2-110.933333-110.933333-110.933333z" p-id="2602"></path><path d="M512 981.333333h-4.266667c-42.666667-10.666667-386.133333-290.133333-392.533333-529.066666-2.133333-119.466667 32-219.733333 102.4-292.266667C285.866667 85.333333 388.266667 46.933333 512 42.666667c153.6 4.266667 273.066667 64 339.2 170.666666 6.4 10.666667 2.133333 23.466667-6.4 29.866667-10.666667 6.4-23.466667 2.133333-29.866667-6.4C755.2 140.8 650.666667 89.6 512 85.333333c-110.933333 2.133333-202.666667 38.4-264.533333 102.4-61.866667 64-91.733333 153.6-89.6 262.4 4.266667 209.066667 300.8 454.4 354.133333 486.4 51.2-32 349.866667-277.333333 356.266667-486.4v-6.4c0-12.8 10.666667-21.333333 21.333333-21.333333 12.8 0 21.333333 10.666667 21.333333 21.333333v6.4C904.533333 691.2 561.066667 968.533333 516.266667 981.333333H512z" p-id="2603"></path><path d="M868.266667 332.8m-32 0a32 32 0 1 0 64 0 32 32 0 1 0-64 0Z" p-id="2604"></path></svg>