<svg xmlns="http://www.w3.org/2000/svg" xmlns:xlink="http://www.w3.org/1999/xlink" version="1.1" id="Capa_1" x="0px" y="0px" width="95.218px" height="95.218px" viewBox="0 0 95.218 95.218" style="enable-background:new 0 0 95.218 95.218;" xml:space="preserve">
<g>
	<path d="M70.544,95.218l18.697-15.069L77.048,65.018c0.037-0.062,0.078-0.115,0.115-0.176l3.461-6.191   c10.098-18.174,5.717-52.763,5.717-52.763C86.113,3.625,85.843,2.5,85.843,2.5L64.611,6.968c0,0,0.418,1.162,1.148,3.194   c0,0,9.832,29.653,7.471,50.116L24.674,0L5.976,15.07l12.193,15.131c-0.038,0.062-0.079,0.115-0.116,0.175l-3.461,6.192   C4.496,54.742,8.876,89.33,8.876,89.33c0.228,2.263,0.497,3.388,0.497,3.388l21.234-4.468c0,0-0.418-1.162-1.148-3.193   c0,0-9.833-29.654-7.471-50.117L70.544,95.218z" fill=''></path>
</g>
</svg>