<?xml version="1.0" standalone="no"?><!DOCTYPE svg PUBLIC "-//W3C//DTD SVG 1.1//EN" "http://www.w3.org/Graphics/SVG/1.1/DTD/svg11.dtd"><svg t="1542879201650" class="icon" style="" viewBox="0 0 1024 1024" version="1.1" xmlns="http://www.w3.org/2000/svg" p-id="4775" xmlns:xlink="http://www.w3.org/1999/xlink" width="200" height="200"><defs><style type="text/css"></style></defs><path d="M297.093419 955.340247c-4.701069 0-9.965979-1.210571-14.185071-3.640923-8.475022-4.879124-14.256702-13.924127-14.256702-23.707958L268.651646 776.297478l-62.935378 0c-75.281567 0-136.609331-63.450101-136.609331-140.031267l0-437.586197c0-75.477019 60.046584-135.626957 136.609331-135.626957l619.914802 0c76.795037 0 137.845485 60.149938 137.845485 135.626957l0 437.586197c0 76.581166-62.33265 140.031267-137.845485 140.031267L614.207823 776.297478l-303.369356 175.900196C306.600957 954.673052 301.847699 955.340247 297.093419 955.340247zM205.715245 120.358205c-45.88505 0-81.350796 33.514301-81.350796 78.32181l0 437.586197c0 45.635363 36.997636 84.772732 81.350796 84.772732l91.37715 0c15.098883 0 26.815739 11.661597 26.815739 26.76969l0 132.632763 268.914636-155.979494c4.166903-2.430352 9.187243-3.422959 14.012132-3.422959l218.793098 0c44.584428 0 82.58695-39.137369 82.58695-84.772732l0-437.586197c0-44.807509-36.453237-78.32181-82.58695-78.32181L205.715245 120.358205z" p-id="4776"></path><path d="M296.884664 417.477206m-72.931033 0a71.27 71.27 0 1 0 145.862066 0 71.27 71.27 0 1 0-145.862066 0Z" p-id="4777"></path><path d="M515.677762 417.477206m-72.931033 0a71.27 71.27 0 1 0 145.862066 0 71.27 71.27 0 1 0-145.862066 0Z" p-id="4778"></path><path d="M734.470861 417.477206m-72.931033 0a71.27 71.27 0 1 0 145.862066 0 71.27 71.27 0 1 0-145.862066 0Z" p-id="4779"></path></svg>