<?xml version="1.0" standalone="no"?><!DOCTYPE svg PUBLIC "-//W3C//DTD SVG 1.1//EN" "http://www.w3.org/Graphics/SVG/1.1/DTD/svg11.dtd"><svg t="1543201975906" class="icon" style="" viewBox="0 0 1024 1024" version="1.1" xmlns="http://www.w3.org/2000/svg" p-id="2627" xmlns:xlink="http://www.w3.org/1999/xlink" width="200" height="200"><defs><style type="text/css"></style></defs><path d="M984.4 299.1l39.8-0.8-2-288.6-13.9 0.3v-0.1H734.4v39.8h205.2L721.8 261c-76.6-71-178.7-114.9-291.2-114.9-236.5 0.1-428.9 192.5-428.9 429S194.1 1004 430.6 1004s428.9-192.4 428.9-428.9c0-109.7-41.8-209.7-109.8-285.6L983.5 62.6l0.9 236.5z m-553.8 665C216.1 964.1 41.5 789.6 41.5 575s174.6-389 389.1-389 389.1 174.5 389.1 389.1-174.5 389-389.1 389z" fill="" p-id="2628"></path></svg>