<?xml version="1.0" standalone="no"?><!DOCTYPE svg PUBLIC "-//W3C//DTD SVG 1.1//EN" "http://www.w3.org/Graphics/SVG/1.1/DTD/svg11.dtd"><svg t="1542258062228" class="icon" style="" viewBox="0 0 1024 1024" version="1.1" xmlns="http://www.w3.org/2000/svg" p-id="14741" xmlns:xlink="http://www.w3.org/1999/xlink" width="200" height="200"><defs><style type="text/css"></style></defs><path d="M641.522424 590.30953c-29.470195-20.878516-61.574381-37.341466-95.630011-49.183166C617.699855 497.470075 661.783887 419.876859 661.783887 335.542102c0-132.611274-108.021226-240.529145-240.581334-240.529145-132.62867 0-240.545518 107.916848-240.545518 240.529145 0 45.162596 12.561084 89.143273 36.623106 127.426181 20.159132 32.190143 47.677882 59.195194 80.124875 78.789461-34.56933 11.740392-67.220984 28.493961-97.135294 49.663096-32.652677 23.136953-61.334927 51.117215-85.361133 83.051531-49.937342 66.587558-76.393901 145.737222-76.393901 228.959645 0 15.624862 12.561084 28.237111 28.066219 28.237111 15.607466 0 28.27088-12.612249 28.27088-28.237111 0-86.747713 33.850969-168.516018 95.252411-230.277664 61.266365-61.488423 142.486178-95.40693 228.532927-95.491865 2.806929 0.274246 5.749958 0 8.556886-0.685615l2.326998-0.445138c83.650165 1.678222 162.338319 35.528168 222.268246 95.544053 61.403488 61.675688 95.185896 143.478785 95.185896 230.311433 0 15.45397 12.629645 28.134781 28.16855 28.134781 15.538905 0 28.133757-12.681834 28.133757-28.134781 0-83.307358-26.355251-162.457022-76.393901-228.925876C702.958658 641.376603 674.174078 613.412714 641.522424 590.30953zM421.203576 519.768941c-101.550861 0-184.242188-82.588997-184.242188-184.225815 0-101.550861 82.692351-184.173626 184.242188-184.173626 101.483322 0 184.17465 82.622766 184.17465 184.173626C605.378226 437.178921 522.686898 519.768941 421.203576 519.768941z" p-id="14742"></path><path d="M932.277484 638.022205c-36.074613-52.05968-84.915995-91.249237-141.595902-113.821325 24.986067-17.661242 46.070268-41.141002 61.231573-68.505233 17.627473-31.642674 27.006074-67.820642 27.006074-104.699574 0-114.745371-88.956008-208.082152-198.10594-208.082152-15.607466 0-28.167526 12.595876-28.167526 28.134781s12.56006 28.082592 28.167526 28.082592c78.175477 0 141.700279 68.197218 141.700279 151.86478 0 83.804684-63.524802 151.932318-141.700279 151.932318-15.607466 0-28.167526 12.594853-28.167526 28.134781l0 0.171915c0 15.538905 12.56006 28.184923 28.167526 28.184923 140.569526 0 254.990508 121.899304 254.990508 271.76045 0 15.539928 12.664438 28.219715 28.203342 28.219715 15.504112 0 28.203342-12.68081 28.203342-28.219715C992.209458 761.28967 971.399503 694.427866 932.277484 638.022205z" p-id="14743"></path></svg>