<?xml version="1.0" standalone="no"?><!DOCTYPE svg PUBLIC "-//W3C//DTD SVG 1.1//EN" "http://www.w3.org/Graphics/SVG/1.1/DTD/svg11.dtd"><svg t="1542258037253" class="icon" style="" viewBox="0 0 1024 1024" version="1.1" xmlns="http://www.w3.org/2000/svg" p-id="14624" xmlns:xlink="http://www.w3.org/1999/xlink" width="200" height="200"><defs><style type="text/css"></style></defs><path d="M917.029198 629.641327c-35.120892-50.538023-82.403778-88.583524-137.494491-110.500697 24.322965-17.162892 44.823881-39.940664 59.377342-66.523089 17.144472-30.719652 26.248827-65.824171 26.248827-101.642958 0-111.378693-86.291318-201.989387-192.254675-201.989387-15.152095 0-27.312042 12.227486-27.312042 27.313066 0 14.985296 12.160971 27.262924 27.312042 27.262924 75.825966 0 137.563052 66.106604 137.563052 147.413398 0 81.357959-61.737086 147.414421-137.563052 147.414421-15.152095 0-27.312042 12.326746-27.312042 27.398l0 0.099261c0 15.171538 12.160971 27.349905 27.312042 27.349905 136.432299 0 247.544933 118.439506 247.544933 263.926018 0 15.084557 12.19474 27.395954 27.379581 27.395954 15.019065 0 27.312042-12.311397 27.312042-27.395954C975.143781 749.309824 955.008184 684.400488 917.029198 629.641327z" p-id="14625"></path><path d="M634.695948 583.206762c-28.641317-20.286022-59.809177-36.235272-92.704378-47.716768 69.645197-42.318828 112.37437-117.612675 112.37437-199.600991 0-128.639822-104.866373-233.488799-233.488799-233.488799-128.822994 0-233.621828 104.848976-233.621828 233.488799 0 43.926442 12.360516 86.640266 35.553751 123.706463 19.671015 31.350009 46.451962 57.550741 77.951373 76.577073-33.559327 11.31572-65.358567 27.596522-94.465488 48.231491-31.66621 22.446221-59.510372 49.608861-82.836637 80.609922-48.511877 64.644299-74.097602 141.497665-74.097602 222.291782 0 15.08558 12.160971 27.246551 27.313066 27.246551 15.019065 0 27.246551-12.160971 27.246551-27.246551 0-84.298941 32.895201-163.67885 92.504834-223.554542 59.609633-59.709917 138.359184-92.705402 221.892693-92.705402 2.824325 0.165776 5.582135 0 8.373715-0.663102 83.400478 1.178849 159.889547 33.958416 217.971383 92.305289 59.609633 59.875692 92.472088 139.305743 92.472088 223.520773 0 15.07023 12.19474 27.396977 27.412326 27.396977 14.986319 0 27.246551-12.32777 27.246551-27.396977 0-80.874959-25.684986-157.63111-74.164117-222.291782C694.306604 632.881115 666.461419 605.751221 634.695948 583.206762z" p-id="14626"></path></svg>