<?xml version="1.0" standalone="no"?><!DOCTYPE svg PUBLIC "-//W3C//DTD SVG 1.1//EN" "http://www.w3.org/Graphics/SVG/1.1/DTD/svg11.dtd"><svg t="1542867600131" class="icon" style="" viewBox="0 0 1024 1024" version="1.1" xmlns="http://www.w3.org/2000/svg" p-id="1926" xmlns:xlink="http://www.w3.org/1999/xlink" width="200" height="200"><defs><style type="text/css"></style></defs><path d="M673.714 495.219q-85.098-85.098-341.118-341.118-5.091-5.819-5.091-10.91 0-5.091 5.091-10.183 5.091-5.091 10.183-5.091 5.091 0 10.91 5.091 119.282 119.282 357.119 357.119 5.091 5.091 5.091 10.91 0 5.091-5.091 10.183-0.727 0.727-1.455 1.455-88.734 88.734-355.665 354.937-5.819 5.091-10.91 5.091-5.091 0-10.183-5.091-5.091-5.091-5.091-10.183 0-5.091 5.091-10.91 113.464-113.464 341.118-341.118 5.091-5.091 0-10.183z" p-id="1927"></path></svg>