<?xml version="1.0" standalone="no"?><!DOCTYPE svg PUBLIC "-//W3C//DTD SVG 1.1//EN" "http://www.w3.org/Graphics/SVG/1.1/DTD/svg11.dtd"><svg t="1542262227898" class="icon" style="" viewBox="0 0 1024 1024" version="1.1" xmlns="http://www.w3.org/2000/svg" p-id="2332" xmlns:xlink="http://www.w3.org/1999/xlink" width="200" height="200"><defs><style type="text/css"></style></defs><path d="M797.922078 132.987013C713.69697 46.545455 600.658009 0 480.969697 0 361.281385 0 248.242424 46.545455 164.017316 132.987013c-175.099567 177.316017-175.099567 463.238095 0 640.554113 84.225108 86.441558 197.264069 132.987013 316.952381 132.987013 119.688312 0 232.727273-46.545455 316.952381-132.987013C973.021645 596.225108 973.021645 310.30303 797.922078 132.987013zM480.969697 848.900433c-104.17316 0-203.91342-42.112554-277.056277-115.255411-152.935065-155.151515-152.935065-405.61039 0-560.761905 73.142857-75.359307 172.883117-115.255411 277.056277-115.255411 104.17316 0 203.91342 42.112554 277.056277 115.255411 152.935065 155.151515 152.935065 405.61039 0 560.761905C684.883117 809.004329 585.142857 848.900433 480.969697 848.900433zM984.103896 973.021645 844.467532 833.385281c-11.082251-11.082251-28.813853-11.082251-39.896104 0-11.082251 11.082251-11.082251 28.813853 0 39.896104l139.636364 141.852814c4.4329 4.4329 13.298701 8.865801 19.948052 8.865801 6.649351 0 13.298701-2.21645 19.948052-8.865801C995.186147 1001.835498 995.186147 984.103896 984.103896 973.021645z" p-id="2333"></path></svg>