<?xml version="1.0" standalone="no"?><!DOCTYPE svg PUBLIC "-//W3C//DTD SVG 1.1//EN" "http://www.w3.org/Graphics/SVG/1.1/DTD/svg11.dtd"><svg t="1543425182305" class="icon" style="" viewBox="0 0 1024 1024" version="1.1" xmlns="http://www.w3.org/2000/svg" p-id="2364" xmlns:xlink="http://www.w3.org/1999/xlink" width="200" height="200"><defs><style type="text/css"></style></defs><path d="M512.057817 780.659833c-231.338832 0-414.664138-242.019079-422.330748-252.342192l-5.780657-7.751544 5.780657-7.714705c7.667633-10.323113 190.992939-252.379031 422.330748-252.379031 231.357252 0 414.635485 242.055918 422.312328 252.379031l5.799076 7.714705-5.799076 7.751544C926.694325 538.603915 743.415069 780.659833 512.057817 780.659833M116.59602 520.566096c33.391505 41.386596 199.627596 234.210229 395.46282 234.210229 196.013279 0 362.070292-192.785771 395.434168-234.210229-33.382295-41.3692-199.598944-234.210229-395.434168-234.210229C316.044538 286.355867 149.959895 479.160057 116.59602 520.566096z" p-id="2365"></path><path d="M512.057817 714.553229c-106.978477 0-194.023972-86.998423-194.023972-193.986109 0-106.969267 87.045495-194.005552 194.023972-194.005552 106.959034 0 193.995319 87.036285 193.995319 194.005552C706.054159 627.554806 619.017874 714.553229 512.057817 714.553229M512.057817 352.463494c-92.675726 0-168.111812 75.436086-168.111812 168.102602 0 92.704378 75.436086 168.084183 168.111812 168.084183 92.684936 0 168.084183-75.379804 168.084183-168.084183C680.142 427.89958 604.743776 352.463494 512.057817 352.463494z" p-id="2366"></path></svg>