<?xml version="1.0" standalone="no"?><!DOCTYPE svg PUBLIC "-//W3C//DTD SVG 1.1//EN" "http://www.w3.org/Graphics/SVG/1.1/DTD/svg11.dtd"><svg t="1543241498621" class="icon" style="" viewBox="0 0 1024 1024" version="1.1" xmlns="http://www.w3.org/2000/svg" p-id="1820" xmlns:xlink="http://www.w3.org/1999/xlink" width="200" height="200"><defs><style type="text/css"></style></defs><path d="M568.019708 1013.719688 460.381145 1013.719688c-16.194738 0-21.844414 0.034967-77.032406-136.691185l-42.619836-17.323674c-116.130561 52.68535-129.877606 52.68535-134.473275 52.68535l-8.886625 0-7.577859-6.508866-76.303093-74.654647c-11.604065-11.584083-15.625275-15.605294 44.083457-150.543131l-17.378623-41.116253C0 589.329626 0 583.50012 0 566.94572L0 461.41517c0-16.534418 0-21.754499 139.728322-75.783583l17.378623-41.206168c-63.160479-132.884772-58.814574-137.010883-46.356315-148.73983l82.05767-80.449186 10.190397-0.319699c12.388325 0 58.350012 16.769197 136.726152 49.858015l42.494953-17.25374C433.381589 10.260331 439.660671 10.280312 455.800461 10.280312l107.638563 0c16.124804 0 21.794461 0.019981 76.982453 136.7811l42.68977 17.198792c115.95073-52.615416 129.877606-52.615416 134.508242-52.615416l8.831677 0 7.577859 6.39897 76.303093 74.529764c11.604065 11.708966 15.570327 15.71519-44.138405 150.707975l17.428576 41.351031c140.372715 50.022859 140.372715 55.832385 140.372715 72.421751l0 105.405668c0 16.144785 0 21.829428-139.908153 75.888484l-17.268726 41.241135c62.84078 132.310313 58.689692 136.456406 46.925778 148.310235l-82.682082 80.948715-10.245345 0.284732c-12.333377 0-58.190163-16.789178-136.456406-49.912963l-42.744718 17.268726C590.313699 1013.719688 584.484192 1013.719688 568.019708 1013.719688zM471.5706 970.150747l84.899992 0c9.74082-19.861283 30.800974-72.511666 47.660086-117.863927l3.396799-9.026494 77.302152-31.215583 8.312167 3.521681c46.071583 19.646485 100.525267 41.420966 121.745269 48.109662l59.658779-58.350012c-7.577859-21.005205-30.551209-72.40177-51.271682-115.755914l-4.18106-8.811696 31.984858-76.353046 8.706795-3.361832c46.536145-17.913119 100.455333-40.027279 120.601347-50.112775L980.386101 468.958062c-20.380793-9.580971-74.085183-30.016713-120.366569-46.426249l-9.061461-3.23695-32.19466-76.427976 3.84138-8.61688c19.806335-44.692882 41.835575-97.413199 48.893923-118.653183l-59.818628-58.474894c-19.306806 6.73865-73.370857 29.906816-118.972882 50.717205l-8.491997 3.896328-77.302152-31.160635-3.451747-8.596898c-18.27278-45.607021-40.976385-98.487187-51.216734-118.063739L467.404526 53.914192c-9.795769 19.806335-30.785988 72.476699-47.605138 117.813974l-3.341851 8.976541-77.087354 31.320484-8.312167-3.556648c-46.176484-19.611518-100.740064-41.351031-122.030001-48.034733L149.474138 218.818789c7.472958 20.970238 30.516242 72.331836 51.166781 115.68598l4.236008 8.831677L172.73222 419.654525l-8.651847 3.341851c-46.461216 17.893138-100.290488 39.992312-120.441498 50.037845l0 82.077651c20.380793 9.615938 74.030235 30.106628 120.281649 46.586098l8.991527 3.271917 32.199656 76.173216-3.84138 8.596898c-19.806335 44.657915-41.815594 97.308298-48.893923 118.50832l59.94351 58.654725c19.251857-6.793598 73.245974-29.961765 118.902948-50.792134l8.546946-3.916309 77.142302 31.355451 3.451747 8.596898C438.691585 897.768958 461.325255 950.559209 471.5706 970.150747zM511.992507 687.617002c-98.701985 0-179.076242-78.785754-179.076242-175.62949 0-96.768807 80.359271-175.504607 179.076242-175.504607 98.647037 0 178.826477 78.750787 178.826477 175.504607C690.818984 608.831248 610.639544 687.617002 511.992507 687.617002zM511.992507 380.091808c-74.709595 0-135.437366 59.174235-135.437366 131.900699 0 72.776417 60.712785 132.0056 135.437366 132.0056 74.584713 0 135.262531-59.229183 135.262531-132.0056C647.235057 439.266043 586.57722 380.091808 511.992507 380.091808z" p-id="1821"></path></svg>