<?xml version="1.0" standalone="no"?><!DOCTYPE svg PUBLIC "-//W3C//DTD SVG 1.1//EN" "http://www.w3.org/Graphics/SVG/1.1/DTD/svg11.dtd"><svg t="1543227114197" class="icon" style="" viewBox="0 0 1024 1024" version="1.1" xmlns="http://www.w3.org/2000/svg" p-id="2011" xmlns:xlink="http://www.w3.org/1999/xlink" width="200" height="200"><defs><style type="text/css"></style></defs><path d="M750.933333 116.394667L943.104 307.2 750.933333 524.629333v-108.885333l-27.648-6.144a95.914667 95.914667 0 0 0-18.090666 0 570.026667 570.026667 0 0 0-170.666667 36.522667A466.602667 466.602667 0 0 0 341.333333 551.253333c5.12-98.645333 30.378667-187.733333 150.528-247.808A566.272 566.272 0 0 1 716.8 238.933333h34.133333V116.394667M716.8 34.133333v170.666667a589.482667 589.482667 0 0 0-238.933333 68.266667c-178.176 89.088-170.666667 238.933333-170.666667 375.466666 68.266667-102.4 136.533333-136.533333 238.933333-170.666666a539.306667 539.306667 0 0 1 159.402667-34.133334 68.266667 68.266667 0 0 1 11.264 0v170.666667l273.066667-307.2-273.066667-273.066667z" p-id="2012"></path><path d="M955.733333 614.4v307.2a34.133333 34.133333 0 0 1-34.133333 34.133333H102.4a34.133333 34.133333 0 0 1-34.133333-34.133333V102.4a34.133333 34.133333 0 0 1 34.133333-34.133333h477.866667V34.133333H102.4a68.266667 68.266667 0 0 0-68.266667 68.266667v819.2a68.266667 68.266667 0 0 0 68.266667 68.266667h819.2a68.266667 68.266667 0 0 0 68.266667-68.266667v-307.2z" p-id="2013"></path></svg>