<?xml version="1.0" standalone="no"?><!DOCTYPE svg PUBLIC "-//W3C//DTD SVG 1.1//EN" "http://www.w3.org/Graphics/SVG/1.1/DTD/svg11.dtd"><svg t="1543157041756" class="icon" style="" viewBox="0 0 1024 1024" version="1.1" xmlns="http://www.w3.org/2000/svg" p-id="8002" xmlns:xlink="http://www.w3.org/1999/xlink" width="200" height="200"><defs><style type="text/css"></style></defs><path d="M299.932582 306.596863C290.310434 198.946075 374.854968 107.491153 489.317906 97.261161l-1.896186-21.209044-1.896186-21.209044-2.109034 0.188288 1.896186 21.209044 1.896186 21.209044c112.521726-10.05603 205.302853 63.798025 215.07952 173.188434l0.428765 4.79419 42.133609-3.765767-0.428765-4.793166c-11.918447-133.357264-125.716236-223.933165-261.004479-211.841779l3.791349 42.418089 2.109034-0.188288-3.791349-42.418089c-136.788409 12.225439-239.535515 123.369795-227.724515 255.519558l17.664312 116.2834 42.129516-3.764744L299.932582 306.596863 299.932582 306.596863zM640.027373 639.811967c0-70.563102-56.814983-127.765919-126.899178-127.765919-70.086242 0-126.901225 57.202816-126.901225 127.765919s56.814983 127.766942 126.901225 127.766942C583.21239 767.579933 640.027373 710.376093 640.027373 639.811967L640.027373 639.811967zM428.529425 639.811967c0-47.040363 37.876656-85.173868 84.59877-85.173868 46.720068 0 84.599793 38.134529 84.599793 85.173868 0 47.042409-37.879726 85.178985-84.599793 85.178985C466.406081 724.991975 428.529425 686.854377 428.529425 639.811967L428.529425 639.811967zM491.980549 831.460846l42.297338 0 0-85.174891-42.297338 0L491.980549 831.460846 491.980549 831.460846zM280.479531 916.638807c-58.113559 0-105.749486-47.962362-105.749486-106.472963L174.730045 533.340027c0-58.509579 47.635927-106.46887 105.749486-106.46887l465.296305 0c58.111512 0 105.747439 47.959292 105.747439 106.46887l0 276.825816c0 58.510602-47.635927 106.472963-105.747439 106.472963L280.479531 916.638807 280.479531 916.638807zM893.82266 810.165844 893.82266 533.340027c0-82.027202-66.572208-149.056827-148.046824-149.056827L280.479531 384.2832c-81.476663 0-148.047848 67.028603-148.047848 149.056827l0 276.825816c0 82.033341 66.571185 149.060921 148.047848 149.060921l465.296305 0C827.250452 959.226764 893.82266 892.199185 893.82266 810.165844L893.82266 810.165844zM893.82266 810.165844" p-id="8003"></path></svg>