<?xml version="1.0" standalone="no"?><!DOCTYPE svg PUBLIC "-//W3C//DTD SVG 1.1//EN" "http://www.w3.org/Graphics/SVG/1.1/DTD/svg11.dtd"><svg t="1577268006082" class="icon" viewBox="0 0 1175 1024" version="1.1" xmlns="http://www.w3.org/2000/svg" p-id="2454" xmlns:xlink="http://www.w3.org/1999/xlink" width="229.4921875" height="200"><defs><style type="text/css"></style></defs><path d="M1073.442091 767.845569h-54.264596l-511.97689 0.383045a51.072561 51.072561 0 0 1 0-102.145123l566.241486-0.383044v-0.68948l-100.10222 0.663944c71.169614 0 94.024585-14.223708 100.025611-64.351427l-0.153217-148.621153c-1.710931-77.426003-23.314624-92.262582-101.813151-92.262582l45.965305-1.123597-480.388511 0.357508c-2.783455-0.638407-5.107256-2.119511-7.814101-2.962208a50.306473 50.306473 0 0 1-17.390208 3.243107 51.072561 51.072561 0 0 1-51.072561-51.072561l-0.229826-134.091009L124.309614 511.640066l424.259766 425.127999a51.072561 51.072561 0 0 1-72.216602 72.216602L21.347331 553.340812a49.514848 49.514848 0 0 1-6.613897-4.39224 54.417814 54.417814 0 0 1 0-74.463794 45.020463 45.020463 0 0 1 6.613897-4.39224L474.89721 15.546743l0.229827-0.229827 1.021451-1.046987c0.331972-0.331972 0.791625-0.40858 1.123596-0.740552a51.072561 51.072561 0 0 1 12.282951-8.146074 49.719138 49.719138 0 0 1 10.85292-3.626152l1.046987-0.20429a49.080731 49.080731 0 0 1 60.776348 54.851931l0.383044 201.225891 511.364019-0.510726a101.864223 101.864223 0 0 1 101.174744 97.855028l0.357508 311.542623a102.145122 102.145122 0 0 1-102.068514 101.327961z m-0.434117-408.580489h-0.20429l0.255363 41.19002z" p-id="2455" fill="#8a8a8a"></path></svg>