<?xml version="1.0" standalone="no"?><!DOCTYPE svg PUBLIC "-//W3C//DTD SVG 1.1//EN" "http://www.w3.org/Graphics/SVG/1.1/DTD/svg11.dtd"><svg t="1576128713903" class="icon" viewBox="0 0 1024 1024" version="1.1" xmlns="http://www.w3.org/2000/svg" p-id="2621" xmlns:xlink="http://www.w3.org/1999/xlink" width="200" height="200"><defs><style type="text/css"></style></defs><path d="M240 840V512c0-150.221 121.779-272 272-272s272 121.779 272 272v328h120a8 8 0 0 1 8 8v56a8 8 0 0 1-8 8H120a8 8 0 0 1-8-8v-56a8 8 0 0 1 8-8h120z m72 0h400V512c0-110.457-89.543-200-200-200s-200 89.543-200 200v328z m181-728h38a8 8 0 0 1 8 8v80a8 8 0 0 1-8 8h-38a8 8 0 0 1-8-8v-80a8 8 0 0 1 8-8zM114.93 351.837l19-32.909A8 8 0 0 1 144.86 316l69.282 40a8 8 0 0 1 2.928 10.928l-19 32.91a8 8 0 0 1-10.928 2.927l-69.282-40a8 8 0 0 1-2.928-10.928z m775.14-32.909l19 32.91a8 8 0 0 1-2.929 10.927l-69.282 40a8 8 0 0 1-10.928-2.928l-19-32.909A8 8 0 0 1 809.859 356l69.282-40a8 8 0 0 1 10.928 2.928zM271.858 181l32.909-19a8 8 0 0 1 10.928 2.928l40 69.282a8 8 0 0 1-2.928 10.928l-32.909 19a8 8 0 0 1-10.928-2.928l-40-69.282A8 8 0 0 1 271.859 181z m447-19l32.909 19a8 8 0 0 1 2.928 10.928l-40 69.282a8 8 0 0 1-10.928 2.928l-32.909-19a8 8 0 0 1-2.928-10.928l40-69.282A8 8 0 0 1 718.859 162zM512 784c-22.091 0-40-17.909-40-40s17.909-40 40-40 40 17.909 40 40-17.909 40-40 40z m-24-368h48a8 8 0 0 1 8 8v240a8 8 0 0 1-8 8h-48a8 8 0 0 1-8-8V424a8 8 0 0 1 8-8z" p-id="2622" fill="#f4ea2a"></path></svg>