<?xml version="1.0" standalone="no"?><!DOCTYPE svg PUBLIC "-//W3C//DTD SVG 1.1//EN" "http://www.w3.org/Graphics/SVG/1.1/DTD/svg11.dtd"><svg t="1573720425067" class="icon" viewBox="0 0 1024 1024" version="1.1" xmlns="http://www.w3.org/2000/svg" p-id="7564" xmlns:xlink="http://www.w3.org/1999/xlink" width="200" height="200"><defs><style type="text/css"></style></defs><path d="M804.470121 1015.46665c-24.911366 0-49.225121-10.026354-66.707284-27.508517L507.016499 757.210771 276.268114 987.958132c-17.48114 17.482163-41.794895 27.508517-66.707284 27.508517-24.941042 0-49.27117-10.026354-66.75231-27.508517L31.057343 876.205932c-17.48114-17.48114-27.507494-41.811268-27.507494-66.751287 0-24.912389 10.026354-49.225121 27.507494-66.707284l230.747361-230.748385L31.057343 281.251615c-17.48114-17.48114-27.507494-41.794895-27.507494-66.706261 0-24.941042 10.026354-49.27117 27.507494-66.75231L142.809543 36.040844c17.48114-17.48114 41.812291-27.507494 66.75231-27.507494 24.911366 0 49.225121 10.026354 66.707284 27.507494l230.747361 230.747361L737.76386 36.040844C755.245 18.558681 779.558755 8.53335 804.470121 8.53335c24.941042 0 49.27117 10.026354 66.75231 27.507494l111.7522 111.7522c17.48114 17.48114 27.507494 41.811268 27.507494 66.75231 0 24.911366-10.026354 49.225121-27.507494 66.706261L752.228293 512l230.747361 230.748385c17.48114 17.48114 27.507494 41.794895 27.507494 66.707284 0 24.940019-10.026354 49.270147-27.507494 66.751287L871.223454 987.958132C853.742315 1005.440295 829.41014 1015.46665 804.470121 1015.46665zM507.016499 713.795982 759.471254 966.250738c11.768021 11.766998 28.169573 18.516726 44.99989 18.516726 16.859993 0 33.277918-6.749728 45.045939-18.516726l111.7522-111.7522c11.766998-11.766998 18.515702-28.184923 18.515702-45.044916 0-16.830317-6.748704-33.232892-18.515702-44.99989L708.813504 512l252.454756-252.454756c11.766998-11.766998 18.515702-28.16855 18.515702-44.998867 0-16.859993-6.748704-33.278941-18.515702-45.045939L849.51606 57.748239c-11.766998-11.766998-28.185946-18.515702-45.045939-18.515702-16.830317 0-33.232892 6.748704-44.99989 18.515702L507.016499 310.202994 254.561743 57.748239c-11.768021-11.766998-28.16855-18.515702-44.99989-18.515702-16.859993 0-33.277918 6.748704-45.045939 18.515702L52.764738 169.500439c-11.766998 11.768021-18.515702 28.185946-18.515702 45.045939 0 16.830317 6.748704 33.231869 18.515702 44.998867l252.455779 252.454756L52.764738 764.454756c-11.766998 11.766998-18.515702 28.16855-18.515702 44.99989 0 16.85897 6.748704 33.277918 18.515702 45.044916l111.7522 111.7522c11.768021 11.766998 28.185946 18.516726 45.045939 18.516726 16.830317 0 33.231869-6.749728 44.99989-18.516726L507.016499 713.795982z" p-id="7565"></path></svg>